<?xml version="1.0" ?><!DOCTYPE svg  PUBLIC '-//W3C//DTD SVG 1.1//EN'  'http://www.w3.org/Graphics/SVG/1.1/DTD/svg11.dtd'><svg enable-background="new 0 0 128 128" height="128px" id="Layer_1" version="1.1" viewBox="0 0 128 128" width="128px" xml:space="preserve" xmlns="http://www.w3.org/2000/svg" xmlns:xlink="http://www.w3.org/1999/xlink"><g><path d="M89.441,33.805H38.59c-1.968,0-3.568-1.6-3.568-3.565V14.006h57.986V30.24C93.008,32.206,91.408,33.805,89.441,33.805z    M39.021,29.805h49.986V18.006H39.021V29.805z"/><g><path d="M64.164,99.415l-1.965-4.259c-0.075-0.163-7.718-16.506-24.341-33.128l-1.124-1.124l0.841-1.349    C48.172,42.561,48.183,32.4,48.182,32.299l4-0.074c0.009,0.441,0.097,10.766-10.384,28.098    c11.877,12.141,19.003,23.753,22.142,29.479c2.847-5.479,9.438-16.377,22.238-29.427c-10.32-15.537-11.021-27.945-11.046-28.481    l3.996-0.193c0.006,0.125,0.76,12.609,11.272,27.772l0.952,1.373l-1.182,1.181c-18.439,18.44-24.237,32.878-24.294,33.022    L64.164,99.415z"/><rect height="32.331" width="4" x="62.016" y="62.616"/><path d="M64.014,65.061c-5.267,0-9.551-4.285-9.551-9.551c0-5.267,4.284-9.551,9.551-9.551c5.268,0,9.553,4.285,9.553,9.551    C73.566,60.775,69.281,65.061,64.014,65.061z M64.014,49.958c-3.061,0-5.551,2.49-5.551,5.551c0,3.061,2.49,5.551,5.551,5.551    c3.062,0,5.553-2.49,5.553-5.551C69.566,52.448,67.075,49.958,64.014,49.958z"/></g></g><path d="M94.752,105.4H33.278c-1.104,0-2-0.896-2-2s0.896-2,2-2h61.474c1.104,0,2,0.896,2,2S95.856,105.4,94.752,105.4z"/><g><path d="M35.278,113.932H14.016V93.377h21.263V113.932z M18.016,109.932h13.263V97.377H18.016V109.932z"/><path d="M114.015,113.678H92.752V93.123h21.263V113.678z M96.752,109.678h13.263V97.123H96.752V109.678z"/></g></svg>